<svg width="127" height="46" viewBox="0 0 127 46" fill="none" xmlns="http://www.w3.org/2000/svg">
<path d="M50.072 37H53.432V25.384C53.432 23.24 53.144 20.232 52.952 18.088H53.08L54.968 23.528L59.064 34.76H61.368L65.464 23.528L67.384 18.088H67.512C67.32 20.232 67.032 23.24 67.032 25.384V37H70.456V13.448H66.168L61.912 25.384C61.4 26.92 60.952 28.52 60.376 30.12H60.248C59.704 28.52 59.224 26.92 58.648 25.384L54.36 13.448H50.072V37ZM80.4745 37.448C82.5865 37.448 84.4745 36.392 86.0745 35.016H86.2025L86.4905 37H89.5305V26.44C89.5305 21.736 87.5145 18.952 83.1305 18.952C80.3145 18.952 77.8185 20.136 76.0265 21.256L77.4025 23.784C78.8745 22.824 80.6345 21.96 82.4905 21.96C85.0505 21.96 85.7865 23.752 85.8185 25.8C78.5225 26.6 75.3225 28.552 75.3225 32.328C75.3225 35.432 77.4665 37.448 80.4745 37.448ZM81.6265 34.504C80.0585 34.504 78.8745 33.8 78.8745 32.072C78.8745 30.088 80.6025 28.776 85.8185 28.168V32.456C84.3785 33.8 83.1625 34.504 81.6265 34.504ZM95.5528 44.36C99.2648 44.36 101.121 41.832 102.497 38.088L108.961 19.4H105.377L102.529 28.456C102.081 30.088 101.601 31.816 101.185 33.448H101.025C100.449 31.784 99.9368 30.024 99.3928 28.456L96.1608 19.4H92.3848L99.3608 36.872L99.0088 38.088C98.3688 39.976 97.2168 41.384 95.3288 41.384C94.8808 41.384 94.3688 41.256 94.0488 41.128L93.3448 44.008C93.9528 44.232 94.6568 44.36 95.5528 44.36ZM119.635 37H123.379V13.448H119.635V37Z" fill="black"/>
<path d="M0 8H7V43H0V8Z" fill="#9FA9D8"/>
<rect x="12" y="8" width="7" height="35" fill="#D9D9D9"/>
<rect x="24" y="8" width="7" height="35" fill="#757575"/>
</svg>
