<svg width="644" height="122" viewBox="0 0 644 122" fill="none" xmlns="http://www.w3.org/2000/svg">
<rect x="0.25" y="0.25" width="643.5" height="121.5" rx="4.75" fill="white" stroke="#BDBDBD" stroke-width="0.5"/>
<path d="M114.448 24.796V25.986H117.57V24.796H114.448ZM116.772 21.38V30.732H118.242V21.38H116.772ZM109.954 32.72V33.91H118.564V32.72H109.954ZM109.954 29.92V33.378H111.41V29.92H109.954ZM110.766 23.004V23.928C110.766 25.664 109.618 27.344 107.63 28.03L108.372 29.206C110.654 28.394 111.956 26.294 111.956 23.928V23.004H110.766ZM111.06 23.004V23.928C111.06 26.14 112.306 28.156 114.518 28.926L115.246 27.778C113.328 27.106 112.236 25.51 112.236 23.928V23.004H111.06ZM108.05 22.332V23.508H114.91V22.332H108.05ZM120.509 27.806V28.982H132.101V27.806H120.509ZM125.689 28.548V31.376H127.145V28.548H125.689ZM121.965 21.94V26.546H130.603V21.94H121.965ZM129.161 23.102V25.384H123.407V23.102H129.161ZM121.923 32.72V33.91H130.813V32.72H121.923ZM121.923 30.214V33.126H123.379V30.214H121.923ZM141.844 21.352V34.148H143.314V21.352H141.844ZM142.922 26.42V27.624H145.232V26.42H142.922ZM138.526 22.71V22.962C138.526 26.378 136.832 28.94 133.374 30.704L134.2 31.824C138.386 29.724 139.968 26.434 139.968 22.71H138.526ZM134.018 22.71V23.9H139.282V22.71H134.018Z" fill="black"/>
<path d="M343.15 21.366V34.162H344.55V21.366H343.15ZM338.684 25.86V27.064H340.994V25.86H338.684ZM340.574 21.618V33.532H341.946V21.618H340.574ZM336.094 23.396V24.88C336.094 27.162 335.254 29.472 333.434 30.592L334.316 31.684C336.262 30.452 337.214 27.708 337.214 24.88V23.396H336.094ZM336.416 23.396V24.88C336.416 27.624 337.312 30.214 339.258 31.376L340.126 30.298C338.334 29.248 337.522 27.064 337.522 24.88V23.396H336.416ZM333.84 22.766V23.956H339.622V22.766H333.84ZM347.965 21.884V26.308H356.603V21.884H347.965ZM355.161 23.046V25.146H349.407V23.046H355.161ZM346.509 27.736V28.912H358.073V27.736H346.509ZM351.563 26.028V28.114H353.019V26.028H351.563ZM347.797 30.06V31.222H355.203V34.162H356.659V30.06H347.797Z" fill="black"/>
<path d="M116.884 74.422V87.106H118.046V74.422H116.884ZM111.368 75.402C109.506 75.402 108.162 77.124 108.162 79.812C108.162 82.514 109.506 84.236 111.368 84.236C113.244 84.236 114.588 82.514 114.588 79.812C114.588 77.124 113.244 75.402 111.368 75.402ZM111.368 76.452C112.614 76.452 113.468 77.768 113.468 79.812C113.468 81.87 112.614 83.214 111.368 83.214C110.136 83.214 109.268 81.87 109.268 79.812C109.268 77.768 110.136 76.452 111.368 76.452ZM125.703 80.414V82.36H126.851V80.414H125.703ZM120.565 79.77V80.708H132.003V79.77H120.565ZM122.049 74.856V78.706H130.519V74.856H122.049ZM129.385 75.78V77.782H123.197V75.78H129.385ZM121.951 81.94V82.836H129.399V83.942H121.979V86.322H123.127V84.782H130.547V81.94H121.951ZM121.979 86.042V86.952H130.925V86.042H121.979ZM142.67 74.422V87.106H143.832V74.422H142.67ZM134.186 83.088V84.054H135.236C137.406 84.054 139.31 83.97 141.606 83.592L141.48 82.64C139.24 83.004 137.35 83.088 135.236 83.088H134.186ZM134.158 75.612V76.564H138.834V79.182H134.186V83.452H135.348V80.134H140.01V75.612H134.158Z" fill="black"/>
<path d="M240.302 75.262V81.1H245.16V75.262H244.18V77.292H241.282V75.262H240.302ZM241.282 78.118H244.18V80.26H241.282V78.118ZM249.318 74.478V82.024H250.312V74.478H249.318ZM247.19 77.768V78.636H249.64V77.768H247.19ZM246.616 74.702V81.954H247.596V74.702H246.616ZM241.898 82.822V83.676H249.29V87.064H250.312V82.822H241.898ZM261.861 74.478V83.718H262.897V74.478H261.861ZM254.861 85.916V86.784H263.303V85.916H254.861ZM254.861 82.878V86.308H255.883V82.878H254.861ZM255.939 75.164V76.452C255.939 78.454 254.609 80.316 252.761 81.058L253.307 81.884C255.351 81.03 256.793 78.916 256.793 76.452V75.164H255.939ZM256.121 75.164V76.452C256.121 78.846 257.563 80.834 259.607 81.646L260.153 80.82C258.319 80.134 256.975 78.384 256.975 76.452V75.164H256.121ZM271.156 77.306V78.174H275.048V77.306H271.156ZM271.156 81.31V82.178H275.048V81.31H271.156ZM268.818 75.444C266.998 75.444 265.71 77.152 265.71 79.826C265.71 82.486 266.998 84.208 268.818 84.208C270.652 84.208 271.94 82.486 271.94 79.826C271.94 77.152 270.652 75.444 268.818 75.444ZM268.818 76.368C270.078 76.368 270.96 77.754 270.96 79.826C270.96 81.898 270.078 83.284 268.818 83.284C267.558 83.284 266.69 81.898 266.69 79.826C266.69 77.754 267.558 76.368 268.818 76.368ZM274.782 74.45V87.078H275.818V74.45H274.782ZM281.865 80.078V83.172H282.887V80.078H281.865ZM287.619 74.464V83.998H288.655V74.464H287.619ZM280.143 85.916V86.784H288.977V85.916H280.143ZM280.143 82.934V86.196H281.179V82.934H280.143ZM278.407 80.358C280.689 80.344 283.769 80.288 286.513 79.826L286.443 79.07C283.755 79.448 280.577 79.476 278.267 79.476L278.407 80.358ZM284.819 81.338V82.178H287.885V81.338H284.819ZM279.401 75.248V76.102H284.847V75.248H279.401ZM284.231 75.248V75.738C284.231 76.494 284.231 77.74 283.881 79.56L284.903 79.644C285.253 77.824 285.253 76.508 285.253 75.738V75.248H284.231ZM291.538 88.604C292.714 88.086 293.47 87.064 293.47 85.776C293.47 84.894 293.092 84.362 292.462 84.362C291.986 84.362 291.58 84.684 291.58 85.202C291.58 85.734 291.972 86.042 292.434 86.042C292.672 86.042 292.896 85.986 293.05 85.776L292.448 84.88L292.602 85.986C292.602 86.854 292.084 87.526 291.258 87.918L291.538 88.604ZM306.829 74.478V83.928H307.865V74.478H306.829ZM307.529 78.664V79.532H309.755V78.664H307.529ZM298.149 76.046V76.886H305.597V76.046H298.149ZM301.873 77.628C300.081 77.628 298.863 78.538 298.863 79.966C298.863 81.366 300.081 82.29 301.873 82.29C303.651 82.29 304.869 81.366 304.869 79.966C304.869 78.538 303.651 77.628 301.873 77.628ZM301.873 78.44C303.063 78.44 303.875 79.042 303.875 79.966C303.875 80.862 303.063 81.464 301.873 81.464C300.669 81.464 299.843 80.862 299.843 79.966C299.843 79.042 300.669 78.44 301.873 78.44ZM301.355 74.478V76.48H302.391V74.478H301.355ZM300.067 85.916V86.784H308.453V85.916H300.067ZM300.067 83.172V86.28H301.103V83.172H300.067ZM312.455 75.066V75.92H320.589V75.066H312.455ZM310.985 79.602V80.456H322.423V79.602H310.985ZM316.165 80.176V83.2H317.201V80.176H316.165ZM319.889 75.066V75.976C319.889 76.984 319.889 78.188 319.483 79.896L320.491 80.022C320.911 78.286 320.911 77.012 320.911 75.976V75.066H319.889ZM312.189 82.85V83.704H319.959V87.064H320.995V82.85H312.189ZM328.988 79.406V80.274H331.424V79.406H328.988ZM333.552 74.464V87.064H334.56V74.464H333.552ZM331.074 74.744V86.42H332.054V74.744H331.074ZM326.706 75.542C325.082 75.542 324.032 77.222 324.032 79.896C324.032 82.57 325.082 84.25 326.706 84.25C328.33 84.25 329.38 82.57 329.38 79.896C329.38 77.222 328.33 75.542 326.706 75.542ZM326.706 76.508C327.756 76.508 328.428 77.838 328.428 79.896C328.428 81.954 327.756 83.298 326.706 83.298C325.656 83.298 324.984 81.954 324.984 79.896C324.984 77.838 325.656 76.508 326.706 76.508ZM338.213 80.4V81.254H346.837V80.4H338.213ZM336.743 84.586V85.454H348.181V84.586H336.743ZM341.923 80.764V84.95H342.945V80.764H341.923ZM338.213 75.486V80.778H339.249V76.354H346.697V75.486H338.213ZM354.209 80.4V81.254H362.833V80.4H354.209ZM352.739 84.586V85.454H364.177V84.586H352.739ZM357.919 80.764V84.95H358.941V80.764H357.919ZM354.209 75.486V80.778H355.245V76.354H362.693V75.486H354.209ZM374.886 74.464V81.226H375.922V74.464H374.886ZM367.858 81.87V86.896H375.922V81.87H374.9V83.466H368.88V81.87H367.858ZM368.88 84.292H374.9V86.042H368.88V84.292ZM369.188 75.08C367.284 75.08 365.912 76.242 365.912 77.964C365.912 79.686 367.284 80.862 369.188 80.862C371.078 80.862 372.45 79.686 372.45 77.964C372.45 76.242 371.078 75.08 369.188 75.08ZM369.188 75.948C370.504 75.948 371.442 76.788 371.442 77.964C371.442 79.14 370.504 79.98 369.188 79.98C367.872 79.98 366.934 79.14 366.934 77.964C366.934 76.788 367.872 75.948 369.188 75.948ZM378.469 76.662V77.516H384.769V76.662H378.469ZM381.619 78.412C380.065 78.412 378.931 79.588 378.931 81.254C378.931 82.948 380.065 84.11 381.619 84.11C383.187 84.11 384.321 82.948 384.321 81.254C384.321 79.588 383.187 78.412 381.619 78.412ZM381.619 79.294C382.655 79.294 383.397 80.12 383.397 81.254C383.397 82.402 382.655 83.228 381.619 83.228C380.597 83.228 379.855 82.402 379.855 81.254C379.855 80.12 380.597 79.294 381.619 79.294ZM388.143 74.464V87.064H389.137V74.464H388.143ZM386.043 79.798V80.666H388.479V79.798H386.043ZM385.427 74.758V86.434H386.407V74.758H385.427ZM381.115 74.828V77.18H382.137V74.828H381.115ZM394.722 75.444C392.888 75.444 391.586 77.152 391.586 79.826C391.586 82.486 392.888 84.208 394.722 84.208C396.57 84.208 397.858 82.486 397.858 79.826C397.858 77.152 396.57 75.444 394.722 75.444ZM394.722 76.368C395.996 76.368 396.878 77.754 396.878 79.826C396.878 81.898 395.996 83.284 394.722 83.284C393.448 83.284 392.566 81.898 392.566 79.826C392.566 77.754 393.448 76.368 394.722 76.368ZM400.742 77.67V78.552H403.08V77.67H400.742ZM400.742 81.436V82.304H403.08V81.436H400.742ZM399.986 74.464V87.064H401.036V74.464H399.986ZM415.996 74.464V87.064H417.032V74.464H415.996ZM416.78 79.686V80.554H419.132V79.686H416.78ZM407.302 76.494V77.348H414.75V76.494H407.302ZM411.096 78.454C409.332 78.454 408.044 79.644 408.044 81.338C408.044 83.032 409.332 84.208 411.096 84.208C412.86 84.208 414.134 83.032 414.134 81.338C414.134 79.644 412.86 78.454 411.096 78.454ZM411.096 79.322C412.272 79.322 413.154 80.162 413.154 81.338C413.154 82.5 412.272 83.34 411.096 83.34C409.892 83.34 409.024 82.5 409.024 81.338C409.024 80.162 409.892 79.322 411.096 79.322ZM410.55 74.604V76.9H411.586V74.604H410.55ZM421.805 78.314V79.168H430.345V78.314H421.805ZM420.237 80.918V81.786H431.675V80.918H420.237ZM421.805 74.926V78.748H422.841V74.926H421.805ZM421.735 85.902V86.756H430.415V85.902H421.735ZM421.735 83.088V86.126H422.771V83.088H421.735ZM441.74 74.45V87.064H442.79V74.45H441.74ZM442.51 79.63V80.498H444.848V79.63H442.51ZM438.548 75.822V75.976C438.548 79.308 436.756 82.066 433.242 83.83L433.816 84.642C437.876 82.612 439.556 79.364 439.556 75.822H438.548ZM433.802 75.822V76.69H439.08V75.822H433.802ZM447.787 82.99H448.795C448.529 80.75 451.077 79.896 451.077 77.824C451.077 76.34 450.083 75.36 448.501 75.36C447.395 75.36 446.513 75.906 445.883 76.634L446.541 77.236C447.031 76.662 447.689 76.312 448.389 76.312C449.439 76.312 449.957 77.04 449.957 77.908C449.957 79.616 447.451 80.512 447.787 82.99ZM448.333 86.196C448.809 86.196 449.201 85.818 449.201 85.286C449.201 84.726 448.809 84.362 448.333 84.362C447.857 84.362 447.479 84.726 447.479 85.286C447.479 85.818 447.857 86.196 448.333 86.196Z" fill="black"/>
<path d="M37.246 86H42.762V85.048H40.676V75.752H39.794C39.262 76.074 38.618 76.312 37.722 76.466V77.208H39.542V85.048H37.246V86Z" fill="black"/>
<path d="M538.906 22.78V23.984C538.906 25.706 537.772 27.372 535.756 28.058L536.512 29.206C538.794 28.422 540.124 26.364 540.124 23.984V22.78H538.906ZM539.2 22.78V23.984C539.2 26.266 540.53 28.226 542.784 28.968L543.526 27.82C541.552 27.176 540.404 25.622 540.404 23.984V22.78H539.2ZM536.148 22.36V23.536H543.134V22.36H536.148ZM544.716 21.38V30.676H546.186V21.38H544.716ZM537.828 32.72V33.91H546.55V32.72H537.828ZM537.828 29.822V33.28H539.298V29.822H537.828ZM557.959 21.366V29.43H559.345V21.366H557.959ZM556.097 24.698V25.902H558.351V24.698H556.097ZM555.257 21.618V28.982H556.629V21.618H555.257ZM548.453 22.794V23.942H554.809V22.794H548.453ZM551.645 24.488C550.049 24.488 548.901 25.384 548.901 26.7C548.901 28.03 550.049 28.912 551.645 28.912C553.255 28.912 554.389 28.03 554.389 26.7C554.389 25.384 553.255 24.488 551.645 24.488ZM551.645 25.566C552.499 25.566 553.073 26 553.073 26.7C553.073 27.414 552.499 27.848 551.645 27.848C550.791 27.848 550.217 27.414 550.217 26.7C550.217 26 550.791 25.566 551.645 25.566ZM550.917 21.478V23.522H552.359V21.478H550.917ZM555.089 29.612C552.387 29.612 550.763 30.424 550.763 31.88C550.763 33.322 552.387 34.148 555.089 34.148C557.791 34.148 559.415 33.322 559.415 31.88C559.415 30.424 557.791 29.612 555.089 29.612ZM555.089 30.718C556.923 30.718 557.945 31.11 557.945 31.88C557.945 32.636 556.923 33.042 555.089 33.042C553.241 33.042 552.219 32.636 552.219 31.88C552.219 31.11 553.241 30.718 555.089 30.718ZM564.37 22.038V23.27C564.37 25.132 563.292 26.854 561.276 27.568L562.046 28.73C564.314 27.89 565.574 25.776 565.574 23.27V22.038H564.37ZM564.65 22.038V23.396C564.65 25.664 565.91 27.596 568.08 28.366L568.85 27.218C566.932 26.588 565.84 25.048 565.84 23.396V22.038H564.65ZM569.914 21.366V29.038H571.384V21.366H569.914ZM570.978 24.516V25.734H573.19V24.516H570.978ZM567.268 29.36C564.622 29.36 562.998 30.242 562.998 31.754C562.998 33.266 564.622 34.148 567.268 34.148C569.9 34.148 571.524 33.266 571.524 31.754C571.524 30.242 569.9 29.36 567.268 29.36ZM567.268 30.508C569.046 30.508 570.068 30.942 570.068 31.754C570.068 32.566 569.046 33 567.268 33C565.49 33 564.454 32.566 564.454 31.754C564.454 30.942 565.49 30.508 567.268 30.508ZM582.821 21.38V30.032H584.291V21.38H582.821ZM583.731 25.118V26.336H586.041V25.118H583.731ZM580.105 30.172C577.403 30.172 575.849 30.886 575.849 32.174C575.849 33.462 577.403 34.162 580.105 34.162C582.807 34.162 584.375 33.462 584.375 32.174C584.375 30.886 582.807 30.172 580.105 30.172ZM580.105 31.25C581.939 31.25 582.891 31.558 582.891 32.174C582.891 32.776 581.939 33.084 580.105 33.084C578.257 33.084 577.319 32.776 577.319 32.174C577.319 31.558 578.257 31.25 580.105 31.25ZM577.417 27.106V28.912H578.887V27.106H577.417ZM574.337 29.57C576.577 29.57 579.559 29.528 582.261 29.052L582.149 28.044C579.545 28.408 576.451 28.436 574.169 28.436L574.337 29.57ZM574.491 22.388V23.466H581.799V22.388H574.491ZM578.145 23.9C576.297 23.9 575.107 24.586 575.107 25.72C575.107 26.854 576.297 27.54 578.145 27.54C579.993 27.54 581.183 26.854 581.183 25.72C581.183 24.586 579.993 23.9 578.145 23.9ZM578.145 24.866C579.167 24.866 579.797 25.188 579.797 25.72C579.797 26.266 579.167 26.574 578.145 26.574C577.123 26.574 576.493 26.266 576.493 25.72C576.493 25.188 577.123 24.866 578.145 24.866ZM577.417 21.268V22.822H578.887V21.268H577.417Z" fill="black"/>
<path d="M548.574 84.236V85.748H560.306V84.236H548.574ZM553.488 81.464V84.6H555.35V81.464H553.488ZM549.806 75.108V81.856H559.032V75.108H557.184V77.096H551.654V75.108H549.806ZM551.654 78.552H557.184V80.372H551.654V78.552ZM561.439 81.884V83.354H573.185V81.884H561.439ZM564.141 82.654V87.246H566.017V82.654H564.141ZM568.621 82.654V87.246H570.497V82.654H568.621ZM562.783 74.674V76.158H569.937V77.096H562.811V80.484H564.701V78.468H571.827V74.674H562.783ZM562.811 79.49V80.96H572.149V79.49H562.811Z" fill="#61D800"/>
</svg>
